<svg xmlns="http://www.w3.org/2000/svg" viewBox="108 531 1870 974" width="1870" height="974"><path fill="#0E1E33" d="M 575 592 C 810 581 1010 762 1021 997 C 1033 1232 852 1432 616 1444 C 381 1455 181 1274 169 1038 C 158 803 340 603 575 592 z"/><path fill="#F4F7FB" d="M 573 639 C 782 626 962 786 974 995 C 986 1204 827 1384 617 1396 C 409 1408 229 1249 217 1040 C 204 831 364 651 573 639 z"/><path fill="#0E1E33" d="M 343 878 C 345 832 360 791 394 760 C 409 746 427 735 447 728 C 474 719 519 716 549 711 C 579 706 599 698 626 692 C 635 690 644 689 653 689 C 699 691 737 722 757 762 C 756 741 751 727 738 711 C 763 718 788 726 802 751 C 810 765 812 782 807 798 C 804 808 799 817 792 825 C 802 851 815 880 824 907 C 826 915 817 925 812 931 C 822 951 850 1014 844 1033 C 842 1038 839 1041 834 1043 C 827 1046 819 1048 811 1050 C 834 1085 821 1087 815 1124 C 836 1161 857 1196 845 1240 C 839 1264 827 1279 808 1294 C 817 1261 815 1241 803 1209 C 803 1231 804 1248 797 1269 C 783 1312 751 1329 709 1339 C 715 1317 715 1293 702 1274 C 665 1221 637 1206 644 1134 C 631 1156 625 1180 632 1206 C 645 1253 697 1281 670 1334 C 666 1342 658 1349 651 1353 C 648 1316 630 1312 604 1292 C 564 1262 557 1202 574 1157 C 591 1114 604 1095 592 1048 C 589 1081 580 1103 564 1132 C 544 1168 537 1201 548 1241 C 480 1181 496 1109 531 1036 C 537 1023 537 1013 535 1000 C 534 993 534 986 533 979 C 532 965 534 950 523 940 C 488 912 457 944 462 981 C 464 1001 475 1008 485 1024 C 499 1047 489 1076 474 1095 C 461 1111 450 1120 432 1130 C 422 1181 412 1223 367 1257 C 357 1246 349 1237 339 1226 C 353 1215 359 1208 369 1192 C 331 1181 313 1170 304 1130 C 320 1132 338 1136 352 1125 C 368 1113 372 1094 372 1076 C 356 1093 344 1097 321 1098 C 314 1098 306 1098 299 1097 C 300 1058 310 1048 333 1018 C 348 998 355 989 374 970 C 380 965 385 961 391 956 C 397 951 401 947 408 943 C 400 944 393 946 386 948 C 358 959 342 977 333 1006 C 308 969 305 926 345 898 C 364 886 385 881 407 878 C 414 871 424 863 431 856 C 396 856 374 861 343 878 z"/><path fill="#F4F7FB" d="M 625 735 C 675 731 704 757 716 804 C 735 812 749 817 766 827 C 771 838 777 852 782 864 C 788 878 795 893 800 907 C 797 914 791 922 786 930 C 795 951 808 973 814 996 C 816 1002 824 1019 820 1024 C 812 1033 797 1024 787 1023 C 784 1023 773 1027 768 1028 C 758 1025 766 1014 762 1009 C 760 1009 759 1011 757 1012 C 747 1023 747 1032 756 1042 C 714 1061 698 1061 684 1109 C 681 1094 678 1079 675 1065 L 661 1056 C 634 1038 610 1019 594 991 C 585 976 587 960 588 943 C 589 923 592 919 607 906 C 614 900 626 890 631 882 L 631 835 C 620 832 604 826 593 822 C 577 816 564 811 548 806 L 559 787 C 581 793 605 807 627 814 C 656 824 672 818 697 805 C 683 754 635 739 587 747 C 602 741 609 738 625 735 z"/><path fill="#0E1E33" d="M 709 889 C 727 891 744 900 762 905 C 770 908 776 905 780 907 C 782 924 770 931 758 938 C 751 955 746 967 731 977 C 733 969 734 965 734 956 C 723 956 707 951 696 949 C 689 947 682 945 674 944 C 693 933 706 925 727 920 C 699 909 681 917 653 926 C 665 908 687 892 709 889 z"/><path fill="#F5B301" d="M 554 765 C 554 769 514 835 509 845 L 552 845 C 543 852 532 863 523 871 C 506 886 488 901 471 917 C 464 923 445 941 438 946 C 453 920 468 895 483 870 C 468 870 453 870 437 870 C 476 836 515 799 554 765 z"/><path fill="#F4F7FB" d="M 782 1084 C 789 1086 816 1089 794 1105 C 792 1106 765 1107 760 1107 C 765 1115 766 1116 774 1120 C 771 1128 767 1136 763 1144 C 755 1142 747 1140 739 1138 C 733 1146 728 1153 722 1161 C 722 1145 725 1126 732 1111 C 739 1094 765 1090 782 1084 z"/><path fill="#F4F7FB" d="M 512 779 L 514 779 L 514 780 C 511 784 495 800 490 801 C 465 809 447 814 424 829 L 422 830 C 423 827 428 821 430 819 C 453 792 478 782 512 779 z"/><path fill="#0E1E33" d="M 494 947 C 513 947 518 960 526 974 C 512 988 519 1000 524 1016 C 512 1014 506 1013 500 1002 C 497 988 498 985 504 972 C 500 967 499 966 494 961 C 485 972 485 978 484 992 C 477 975 474 955 494 947 z"/><path fill="#0E1E33" d="M 1409 962 C 1430 960 1442 965 1457 979 L 1457 964 L 1491 964 L 1491 1041 C 1491 1057 1492 1073 1490 1088 C 1484 1134 1441 1144 1402 1137 C 1386 1135 1375 1130 1361 1121 L 1366 1113 C 1370 1106 1373 1100 1376 1094 C 1394 1107 1425 1116 1445 1101 C 1454 1093 1455 1081 1455 1071 C 1447 1077 1440 1081 1429 1084 C 1413 1087 1396 1084 1383 1075 C 1353 1056 1348 1016 1367 987 C 1377 972 1392 965 1409 962 z"/><path fill="#F4F7FB" d="M 1419 992 C 1436 990 1452 1001 1455 1018 C 1457 1035 1446 1051 1429 1054 C 1411 1057 1395 1045 1392 1028 C 1390 1011 1402 994 1419 992 z"/><path fill="#0E1E33" d="M 1129 962 C 1165 957 1198 980 1202 1017 C 1203 1024 1203 1030 1203 1037 L 1109 1037 C 1121 1068 1152 1069 1175 1050 L 1181 1055 L 1195 1071 C 1172 1096 1127 1100 1101 1081 C 1052 1045 1068 973 1129 962 z"/><path fill="#F4F7FB" d="M 1134 990 C 1154 989 1162 997 1169 1015 L 1145 1015 L 1109 1015 C 1114 999 1118 995 1134 990 z"/><path fill="#0E1E33" d="M 1561 962 C 1599 958 1629 977 1635 1016 C 1636 1023 1636 1030 1636 1037 C 1605 1037 1573 1037 1542 1037 C 1551 1060 1568 1066 1591 1060 C 1599 1059 1605 1051 1609 1050 L 1612 1054 L 1628 1072 C 1591 1109 1519 1096 1507 1042 C 1499 1002 1521 970 1561 962 z"/><path fill="#F4F7FB" d="M 1565 990 C 1586 989 1595 996 1602 1015 L 1579 1015 L 1542 1015 C 1546 1000 1551 995 1565 990 z"/><path fill="#0E1E33" d="M 1718 962 C 1742 960 1770 972 1774 997 C 1779 1025 1777 1062 1777 1091 C 1765 1091 1753 1091 1741 1091 C 1741 1073 1740 1054 1741 1036 C 1742 1009 1735 985 1702 997 C 1688 1007 1687 1019 1687 1035 C 1687 1053 1687 1072 1687 1091 L 1651 1091 L 1651 964 L 1686 964 L 1686 977 C 1696 968 1705 965 1718 962 z"/><path fill="#0E1E33" d="M 1305 964 L 1341 964 L 1341 1011 L 1341 1091 L 1306 1090 L 1306 1077 C 1295 1088 1283 1093 1268 1092 C 1213 1091 1217 1046 1217 1008 L 1217 964 L 1253 964 C 1253 989 1252 1014 1254 1038 C 1255 1060 1283 1067 1295 1053 C 1310 1036 1305 985 1305 964 z"/><path fill="#0E1E33" d="M 1805 933 L 1839 933 L 1839 967 L 1870 967 L 1870 995 L 1839 995 C 1839 1018 1830 1081 1871 1057 L 1878 1079 C 1879 1083 1879 1081 1878 1085 C 1872 1091 1857 1092 1849 1093 C 1793 1093 1803 1032 1803 995 L 1784 995 L 1784 967 L 1803 967 C 1803 958 1802 943 1803 935 L 1805 933 z"/><path fill="#2F6BE4" d="M 1900 1050 C 1912 1048 1924 1054 1926 1066 C 1928 1078 1922 1088 1910 1092 C 1898 1094 1886 1086 1884 1076 C 1882 1064 1888 1052 1900 1050 z"/></svg>